<svg width="28" height="28" viewBox="0 0 28 28" fill="none" xmlns="http://www.w3.org/2000/svg">
<path d="M15.8769 23.2135C16.4785 23.2135 17.0554 22.9746 17.4808 22.5492C17.9061 22.1238 18.1451 21.5469 18.1451 20.9454C18.1451 20.3438 17.9061 19.7669 17.4808 19.3416C17.0554 18.9162 16.4785 18.6772 15.8769 18.6772C15.2754 18.6772 14.6985 18.9162 14.2731 19.3416C13.8478 19.7669 13.6088 20.3438 13.6088 20.9454C13.6088 21.5469 13.8478 22.1238 14.2731 22.5492C14.6985 22.9746 15.2754 23.2135 15.8769 23.2135ZM7.93843 23.2135C8.53998 23.2135 9.11689 22.9746 9.54225 22.5492C9.96761 22.1238 10.2066 21.5469 10.2066 20.9454C10.2066 20.3438 9.96761 19.7669 9.54225 19.3416C9.11689 18.9162 8.53998 18.6772 7.93843 18.6772C7.33688 18.6772 6.75997 18.9162 6.33461 19.3416C5.90925 19.7669 5.67028 20.3438 5.67028 20.9454C5.67028 21.5469 5.90925 22.1238 6.33461 22.5492C6.75997 22.9746 7.33688 23.2135 7.93843 23.2135ZM22.7245 7.24918C23.0076 7.24005 23.276 7.12117 23.4731 6.91767C23.6701 6.71418 23.7803 6.44203 23.7803 6.15877C23.7803 5.87551 23.6701 5.60336 23.4731 5.39987C23.276 5.19637 23.0076 5.07749 22.7245 5.06836H21.4191C20.3962 5.06836 19.5116 5.77829 19.2894 6.77627L17.8684 13.1747C17.6461 14.1727 16.7615 14.8826 15.7386 14.8826H7.21943L5.5841 8.33902H16.182C16.4624 8.32623 16.7272 8.20581 16.9211 8.00283C17.115 7.79985 17.2232 7.52992 17.2232 7.24918C17.2232 6.96844 17.115 6.69851 16.9211 6.49553C16.7272 6.29255 16.4624 6.17213 16.182 6.15934H5.5841C5.25257 6.15924 4.92538 6.23473 4.62741 6.38007C4.32943 6.5254 4.06852 6.73676 3.8645 6.99808C3.66047 7.25939 3.51871 7.56379 3.45 7.88811C3.38128 8.21244 3.38741 8.54817 3.46792 8.86977L5.10325 15.4111C5.22114 15.8831 5.49347 16.3021 5.87692 16.6015C6.26037 16.9009 6.73293 17.0635 7.21943 17.0634H15.7386C16.7311 17.0636 17.694 16.7252 18.4683 16.1041C19.2425 15.4831 19.7818 14.6165 19.997 13.6476L21.4191 7.24918H22.7245Z" fill="white"/>
</svg>
